<svg
id="svg"
viewBox="0 0 1440 600"
xmlns="http://www.w3.org/2000/svg"
class="transition duration-300 ease-in-out delay-150"
>
<path
d="M 0,600 C 0,600 0,200 0,200 C 114.3732057416268,218.1531100478469 228.7464114832536,236.30622009569376 305,221 C 381.2535885167464,205.69377990430624 419.38755980861254,156.92822966507183 522,154 C 624.6124401913875,151.07177033492817 791.7033492822966,193.98086124401908 908,226 C 1024.2966507177034,258.0191387559809 1089.799043062201,279.1483253588517 1170,273 C 1250.200956937799,266.8516746411483 1345.1004784688994,233.42583732057415 1440,200 C 1440,200 1440,600 1440,600 Z"
stroke="none"
stroke-width="0"
fill="#4f46e588"
></path>
<path
d="M 0,600 C 0,600 0,400 0,400 C 105.31100478468898,366.66985645933016 210.62200956937795,333.33971291866027 312,348 C 413.37799043062205,362.66028708133973 510.82296650717706,425.31100478468903 615,423 C 719.1770334928229,420.68899521531097 830.0861244019139,353.4162679425837 913,354 C 995.9138755980861,354.5837320574163 1050.8325358851675,423.0239234449761 1134,442 C 1217.1674641148325,460.9760765550239 1328.5837320574162,430.4880382775119 1440,400 C 1440,400 1440,600 1440,600 Z"
stroke="none"
stroke-width="0"
fill="#4f46e5ff"
></path>
</svg>
